<svg xmlns="http://www.w3.org/2000/svg" xmlns:xlink="http://www.w3.org/1999/xlink" width="816" zoomAndPan="magnify" viewBox="0 0 595.5 799.92" height="1056" preserveAspectRatio="xMidYMid meet" version="1.2"><defs><clipPath id="c805cb4fc1"><path d="M 61.148438 179.269531 L 541 179.269531 L 541 331.390625 L 61.148438 331.390625 Z M 61.148438 179.269531 "/></clipPath></defs><g id="cb38c07b13"><g clip-rule="nonzero" clip-path="url(#c805cb4fc1)"><path style=" stroke:none;fill-rule:nonzero;fill:#004aad;fill-opacity:0.996;" d="M 270.21875 179.214844 L 270.042969 179.21875 C 243.113281 180.679688 219.628906 188.449219 199.582031 202.53125 L 199.546875 202.558594 C 190.550781 209.179688 182.386719 216.582031 175.058594 224.773438 L 174.976562 224.867188 C 133.429688 277.222656 110.667969 304.273438 106.6875 306.023438 L 106.683594 306.023438 C 106.421875 306.117188 106.183594 306.265625 105.976562 306.453125 C 91.648438 319.65625 77.632812 326.46875 63.933594 326.882812 C 62.769531 326.917969 61.855469 327.890625 61.890625 329.054688 C 61.925781 330.199219 62.863281 331.101562 63.996094 331.101562 C 64.019531 331.101562 64.042969 331.101562 64.0625 331.101562 C 78.71875 330.65625 93.546875 323.5625 108.550781 309.820312 L 108.523438 309.820312 C 113.449219 307.332031 136.675781 279.917969 178.207031 227.585938 L 178.199219 227.585938 C 185.328125 219.625 193.265625 212.425781 202.011719 205.984375 C 221.371094 192.382812 244.089844 184.867188 270.175781 183.4375 L 270.203125 183.4375 C 305.058594 184.457031 324.382812 196.644531 328.164062 220 L 328.136719 220 C 327.972656 226.464844 327.183594 230.460938 325.765625 231.988281 C 312.238281 223.667969 299.632812 219.507812 287.953125 219.507812 C 274.261719 219.507812 261.839844 225.222656 250.6875 236.660156 C 250.582031 236.769531 250.484375 236.890625 250.402344 237.023438 C 249.9375 237.777344 249.492188 238.527344 249.074219 239.273438 L 249.074219 239.277344 C 236.320312 261.898438 243.769531 281 271.414062 296.578125 L 271.507812 296.628906 C 284.503906 303.109375 301.890625 306.347656 323.664062 306.347656 C 327.007812 306.347656 330.460938 306.273438 334.011719 306.117188 C 351.363281 305.488281 377.992188 300.351562 413.894531 290.703125 L 413.878906 290.703125 C 416.289062 290.207031 419.246094 289.960938 422.75 289.960938 C 424.199219 289.960938 425.742188 290 427.382812 290.085938 L 427.367188 290.085938 C 427.902344 290.132812 428.378906 290.191406 428.800781 290.261719 L 428.769531 290.261719 C 421.320312 295.625 417.925781 301.097656 418.589844 306.667969 L 418.585938 306.667969 C 419.058594 311.226562 423.539062 314.703125 432.023438 317.097656 L 432.007812 317.097656 C 434.25 317.902344 436.875 318.300781 439.886719 318.300781 C 448.917969 318.300781 461.417969 314.6875 477.378906 307.453125 L 477.410156 307.453125 C 486.84375 318.125 498.210938 323.457031 511.511719 323.457031 C 519.957031 323.457031 529.179688 321.308594 539.183594 317.007812 C 540.257812 316.546875 540.75 315.308594 540.289062 314.238281 C 539.949219 313.4375 539.167969 312.960938 538.351562 312.960938 C 538.074219 312.960938 537.789062 313.015625 537.519531 313.132812 C 528.160156 317.15625 519.550781 319.167969 511.695312 319.167969 C 499.039062 319.167969 488.335938 313.945312 479.582031 303.507812 C 479.171875 303.019531 478.574219 302.753906 477.964844 302.753906 C 477.667969 302.753906 477.363281 302.820312 477.082031 302.949219 C 460.90625 310.402344 448.566406 314.128906 440.054688 314.128906 C 437.453125 314.128906 435.210938 313.78125 433.328125 313.085938 L 433.167969 313.035156 C 426.503906 311.15625 423.042969 308.882812 422.785156 306.214844 L 422.777344 306.167969 C 422.253906 301.773438 425.816406 297.109375 433.460938 292.171875 C 433.914062 291.878906 434.238281 291.421875 434.363281 290.898438 C 434.707031 289.503906 434.289062 288.351562 433.113281 287.433594 C 432.496094 286.949219 431.648438 286.578125 430.570312 286.316406 C 429.765625 286.117188 428.796875 285.972656 427.667969 285.878906 L 427.496094 285.871094 L 427.601562 285.871094 C 425.902344 285.785156 424.292969 285.738281 422.769531 285.738281 C 418.964844 285.738281 415.71875 286.015625 413.03125 286.566406 L 412.90625 286.597656 C 377.257812 296.183594 350.910156 301.285156 333.859375 301.902344 L 333.84375 301.902344 C 330.332031 302.054688 326.925781 302.128906 323.628906 302.128906 C 302.597656 302.128906 285.886719 299.054688 273.492188 292.902344 L 273.484375 292.902344 C 248.292969 278.703125 241.378906 261.519531 252.75 241.347656 C 253.09375 240.738281 253.449219 240.128906 253.828125 239.511719 L 253.800781 239.511719 C 264.023438 229.066406 275.449219 223.84375 288.074219 223.84375 C 299.320312 223.84375 311.523438 227.992188 324.679688 236.285156 C 325.023438 236.5 325.414062 236.609375 325.804688 236.609375 C 326.082031 236.609375 326.363281 236.554688 326.625 236.441406 C 330.246094 234.917969 332.160156 229.351562 332.363281 219.746094 C 332.367188 219.617188 332.355469 219.488281 332.335938 219.363281 C 328.195312 193.664062 307.488281 180.28125 270.21875 179.214844 Z M 270.21875 179.214844 "/></g></g></svg>